<?xml version="1.0" encoding="utf-8"?>
<!-- Generator: Adobe Illustrator 17.0.0, SVG Export Plug-In . SVG Version: 6.00 Build 0)  -->
<!DOCTYPE svg PUBLIC "-//W3C//DTD SVG 1.1//EN" "http://www.w3.org/Graphics/SVG/1.1/DTD/svg11.dtd">
<svg version="1.1" id="Isolation_Mode" xmlns="http://www.w3.org/2000/svg" xmlns:xlink="http://www.w3.org/1999/xlink" x="0px"
	 y="0px" width="164.667px" height="73px" viewBox="0 0 164.667 73" enable-background="new 0 0 164.667 73" xml:space="preserve">
<g>
	<path d="M142.149,39.529c-1.044-0.59-2.276-1.195-3.511-1.267l-1.06-1.024l1.466-1.538c1.696-0.065,3.232,0.062,4.586,0.408
		c2.045-2.189,4.042-4.473,6.047-6.739c-3.718-1.999-7.912-3.493-12.461-4.619c-1.722-0.376-1.041-2.466,0.37-2.387l16.74,1.426
		c1.545-1.624,3.507-3.151,5.131-4.603c0.561-0.501,1.688-1.292,2.733-0.43c1.116,0.92,0.066,2.386-0.331,2.979
		c-1.398,2.09-2.615,3.713-4.27,5.482l2.1,16.202c0.096,1.473-1.911,2.733-2.31,1.148c-1.284-4.406-2.762-8.716-5.101-12.611
		c-2.18,2.086-4.431,4.148-6.692,6.239c0.349,1.26,0.522,2.684,0.54,4.251l-1.465,1.538l-1.076-1.008
		C143.454,41.746,142.79,40.546,142.149,39.529z"/>
	<g>
		<path d="M3.678,69.868c-0.671,0-1.226-0.532-1.248-1.208c-0.023-0.69,0.517-1.268,1.207-1.292l0.417-0.016
			c0.692-0.011,1.272,0.509,1.299,1.199c0.028,0.69-0.509,1.271-1.199,1.299l-0.433,0.017C3.706,69.868,3.692,69.868,3.678,69.868z"
			/>
		<path d="M9.206,69.592c-0.657,0-1.208-0.513-1.247-1.177c-0.04-0.689,0.486-1.281,1.175-1.321l0.846-0.051
			c0.698-0.038,1.283,0.479,1.327,1.168c0.043,0.689-0.479,1.283-1.168,1.327L9.28,69.59C9.255,69.591,9.23,69.592,9.206,69.592z
			 M15.171,69.191c-0.648,0-1.196-0.5-1.245-1.156c-0.052-0.688,0.464-1.289,1.153-1.34l0.849-0.064
			c0.674-0.05,1.289,0.463,1.342,1.151c0.052,0.688-0.463,1.289-1.151,1.342l-0.852,0.064C15.235,69.19,15.203,69.191,15.171,69.191
			z M21.129,68.703c-0.641,0-1.186-0.489-1.244-1.14c-0.061-0.688,0.447-1.294,1.135-1.355l0.845-0.076
			c0.687-0.066,1.296,0.442,1.359,1.13c0.063,0.688-0.442,1.296-1.13,1.359l-0.854,0.077C21.203,68.701,21.166,68.703,21.129,68.703
			z M27.078,68.131c-0.632,0-1.175-0.478-1.241-1.121c-0.071-0.687,0.427-1.301,1.113-1.373l0.849-0.088
			c0.674-0.075,1.301,0.426,1.373,1.113c0.072,0.687-0.427,1.302-1.113,1.374l-0.849,0.088
			C27.166,68.129,27.122,68.131,27.078,68.131z M33.018,67.473c-0.624,0-1.164-0.468-1.239-1.104
			c-0.081-0.685,0.409-1.307,1.095-1.388l0.844-0.101c0.672-0.078,1.308,0.406,1.391,1.091c0.082,0.686-0.406,1.308-1.092,1.391
			l-0.85,0.101C33.117,67.47,33.067,67.473,33.018,67.473z M38.946,66.723c-0.615,0-1.151-0.455-1.236-1.082
			c-0.093-0.685,0.387-1.314,1.07-1.407l0.844-0.114c0.672-0.095,1.314,0.384,1.407,1.069c0.094,0.684-0.385,1.314-1.069,1.408
			l-0.846,0.115C39.059,66.72,39.002,66.723,38.946,66.723z M44.86,65.874c-0.606,0-1.139-0.442-1.233-1.061
			c-0.104-0.683,0.363-1.32,1.046-1.425l0.842-0.13c0.681-0.103,1.32,0.362,1.426,1.044s-0.362,1.321-1.045,1.426l-0.844,0.13
			C44.987,65.869,44.923,65.874,44.86,65.874z M50.757,64.916c-0.597,0-1.124-0.429-1.229-1.037
			c-0.118-0.681,0.338-1.327,1.019-1.445l0.836-0.146c0.667-0.116,1.327,0.335,1.446,1.016c0.119,0.68-0.336,1.328-1.017,1.447
			l-0.84,0.146C50.9,64.91,50.828,64.916,50.757,64.916z M56.627,63.836c-0.586,0-1.109-0.413-1.226-1.01
			c-0.133-0.678,0.309-1.334,0.986-1.467l0.836-0.165c0.68-0.132,1.334,0.306,1.469,0.982c0.135,0.677-0.305,1.335-0.982,1.47
			l-0.842,0.166C56.787,63.828,56.706,63.836,56.627,63.836z M62.485,62.614c-0.572,0-1.089-0.396-1.219-0.978
			c-0.15-0.674,0.273-1.342,0.947-1.493l0.83-0.187c0.673-0.15,1.343,0.271,1.494,0.944s-0.271,1.343-0.945,1.494l-0.834,0.188
			C62.666,62.604,62.575,62.614,62.485,62.614z M68.295,61.23c-0.558,0-1.065-0.376-1.21-0.941c-0.171-0.669,0.232-1.35,0.901-1.52
			l0.822-0.211c0.669-0.175,1.351,0.229,1.523,0.896c0.173,0.668-0.229,1.351-0.896,1.523l-0.83,0.213
			C68.501,61.218,68.398,61.23,68.295,61.23z M74.057,59.653c-0.54,0-1.038-0.353-1.198-0.897c-0.195-0.663,0.184-1.357,0.846-1.553
			l0.812-0.241c0.668-0.2,1.358,0.178,1.557,0.838c0.198,0.661-0.177,1.358-0.838,1.557l-0.823,0.245
			C74.293,59.637,74.174,59.653,74.057,59.653z M79.749,57.841c-0.518,0-1.004-0.326-1.182-0.844
			c-0.225-0.653,0.122-1.364,0.774-1.589l0.793-0.277c0.653-0.233,1.366,0.109,1.597,0.759c0.232,0.65-0.108,1.365-0.759,1.596
			l-0.816,0.286C80.022,57.819,79.884,57.841,79.749,57.841z M85.336,55.733c-0.49,0-0.956-0.292-1.155-0.774
			c-0.264-0.638,0.04-1.369,0.678-1.632l0.774-0.325c0.638-0.27,1.37,0.026,1.64,0.661c0.271,0.636-0.026,1.37-0.661,1.64
			l-0.798,0.335C85.658,55.702,85.495,55.733,85.336,55.733z M90.763,53.243c-0.454,0-0.893-0.249-1.114-0.681
			c-0.314-0.615-0.07-1.368,0.544-1.682c0.25-0.128,0.496-0.256,0.74-0.385c0.61-0.324,1.368-0.091,1.689,0.52
			c0.323,0.61,0.091,1.367-0.52,1.69c-0.254,0.134-0.512,0.269-0.771,0.401C91.149,53.199,90.954,53.243,90.763,53.243z
			 M95.915,50.238c-0.402,0-0.798-0.194-1.039-0.554c-0.385-0.573-0.232-1.35,0.342-1.734c0.23-0.154,0.458-0.311,0.683-0.468
			c0.564-0.395,1.344-0.259,1.74,0.307c0.396,0.565,0.259,1.345-0.307,1.741c-0.238,0.167-0.479,0.332-0.724,0.496
			C96.397,50.17,96.155,50.238,95.915,50.238z M100.567,46.522c-0.325,0-0.65-0.126-0.895-0.378
			c-0.482-0.495-0.471-1.286,0.023-1.767c0.195-0.191,0.387-0.382,0.572-0.576c0.481-0.498,1.271-0.512,1.768-0.032
			c0.497,0.479,0.512,1.271,0.033,1.768c-0.205,0.212-0.414,0.422-0.629,0.631C101.196,46.404,100.881,46.522,100.567,46.522z
			 M104.255,41.866c-0.226,0-0.453-0.06-0.658-0.188c-0.587-0.365-0.767-1.135-0.402-1.722c0.146-0.236,0.289-0.471,0.429-0.706
			c0.353-0.594,1.119-0.789,1.713-0.438c0.594,0.352,0.79,1.119,0.437,1.712c-0.147,0.25-0.3,0.5-0.456,0.751
			C105.081,41.657,104.673,41.866,104.255,41.866z M107.003,36.579c-0.159,0-0.322-0.031-0.48-0.097
			c-0.638-0.265-0.938-0.997-0.674-1.634c0.106-0.255,0.208-0.509,0.306-0.762c0.25-0.644,0.975-0.963,1.617-0.714
			c0.644,0.249,0.964,0.973,0.715,1.617c-0.105,0.271-0.215,0.545-0.329,0.82C107.958,36.289,107.494,36.579,107.003,36.579z
			 M108.706,30.874c-0.071,0-0.143-0.006-0.215-0.018c-0.68-0.118-1.137-0.764-1.019-1.445c0.046-0.268,0.088-0.534,0.124-0.798
			c0.093-0.685,0.72-1.165,1.407-1.069c0.685,0.093,1.163,0.724,1.069,1.407c-0.04,0.293-0.086,0.589-0.138,0.886
			C109.831,30.445,109.303,30.874,108.706,30.874z M108.889,24.935c-0.623,0-1.163-0.466-1.239-1.101
			c-0.031-0.265-0.07-0.526-0.113-0.784c-0.115-0.681,0.344-1.326,1.024-1.44c0.679-0.117,1.326,0.343,1.44,1.024
			c0.05,0.297,0.094,0.598,0.131,0.901c0.082,0.686-0.406,1.308-1.092,1.391C108.99,24.932,108.939,24.935,108.889,24.935z
			 M107.215,19.243c-0.463,0-0.907-0.258-1.124-0.702c-0.117-0.239-0.239-0.474-0.365-0.706c-0.331-0.606-0.108-1.365,0.497-1.696
			c0.607-0.329,1.366-0.108,1.696,0.498c0.145,0.265,0.285,0.534,0.418,0.807c0.303,0.621,0.046,1.369-0.574,1.672
			C107.586,19.202,107.399,19.243,107.215,19.243z M103.787,14.391c-0.327,0-0.653-0.128-0.898-0.381
			c-0.186-0.191-0.375-0.379-0.568-0.562c-0.5-0.476-0.521-1.267-0.045-1.767c0.477-0.502,1.267-0.521,1.768-0.045
			c0.219,0.208,0.434,0.421,0.642,0.638c0.48,0.497,0.467,1.288-0.029,1.768C104.413,14.275,104.1,14.391,103.787,14.391z
			 M70.231,13.349c-0.385,0-0.764-0.177-1.009-0.511c-0.408-0.557-0.288-1.339,0.269-1.747c0.232-0.171,0.479-0.344,0.738-0.519
			c0.571-0.385,1.35-0.234,1.735,0.339c0.386,0.573,0.233,1.35-0.339,1.735c-0.231,0.155-0.449,0.309-0.656,0.46
			C70.746,13.27,70.488,13.349,70.231,13.349z M99.099,10.729c-0.216,0-0.434-0.055-0.633-0.172
			c-0.231-0.136-0.466-0.268-0.702-0.396c-0.608-0.327-0.835-1.085-0.508-1.693c0.328-0.608,1.087-0.835,1.693-0.507
			c0.264,0.142,0.525,0.289,0.784,0.441c0.595,0.35,0.794,1.116,0.444,1.711C99.945,10.509,99.528,10.729,99.099,10.729z
			 M75.418,10.428c-0.482,0-0.941-0.28-1.146-0.748c-0.277-0.632,0.011-1.37,0.642-1.647c0.263-0.115,0.533-0.23,0.812-0.344
			c0.633-0.263,1.368,0.042,1.631,0.681c0.263,0.639-0.043,1.369-0.682,1.631c-0.259,0.106-0.512,0.213-0.757,0.321
			C75.756,10.394,75.585,10.428,75.418,10.428z M81.039,8.452c-0.546,0-1.048-0.361-1.203-0.914
			c-0.186-0.665,0.202-1.354,0.867-1.541c0.275-0.077,0.558-0.153,0.844-0.228c0.665-0.178,1.351,0.226,1.525,0.895
			c0.174,0.668-0.227,1.351-0.895,1.524c-0.272,0.071-0.539,0.143-0.801,0.216C81.265,8.437,81.152,8.452,81.039,8.452z
			 M93.633,8.375c-0.116,0-0.233-0.016-0.351-0.05c-0.26-0.076-0.521-0.147-0.781-0.213c-0.669-0.17-1.073-0.851-0.902-1.519
			c0.17-0.67,0.854-1.072,1.52-0.903c0.288,0.073,0.576,0.152,0.863,0.235c0.662,0.193,1.044,0.887,0.851,1.549
			C94.673,8.02,94.174,8.375,93.633,8.375z M87.754,7.449c-0.008,0-0.017,0-0.024-0.001l-0.42-0.004l-0.382,0.004
			c-0.009,0.001-0.018,0.001-0.027,0.001c-0.678,0-1.234-0.542-1.249-1.223c-0.015-0.69,0.533-1.262,1.224-1.276l0.439-0.005
			L87.78,4.95c0.69,0.014,1.239,0.584,1.226,1.274C88.991,6.905,88.434,7.449,87.754,7.449z"/>
		<path d="M66.458,17.274c-0.449,0-0.869-0.236-1.091-0.629c-0.008-0.013-0.071-0.124-0.19-0.314
			c-0.366-0.585-0.189-1.356,0.396-1.723c0.269-0.167,0.575-0.222,0.865-0.174c0.302-0.059,0.621-0.003,0.899,0.173
			c0.583,0.37,0.755,1.143,0.386,1.725c-0.083,0.13-0.127,0.213-0.141,0.239c-0.204,0.415-0.626,0.689-1.089,0.702
			C66.482,17.274,66.47,17.274,66.458,17.274z"/>
		<path d="M87.196,63.445c-0.678,0-1.234-0.543-1.249-1.224c-0.014-0.69,0.534-1.261,1.225-1.275l0.843-0.022
			c0.013,0,0.025,0,0.039,0c0.672,0,1.228,0.535,1.248,1.211c0.021,0.69-0.521,1.267-1.211,1.288l-0.868,0.022
			C87.213,63.445,87.204,63.445,87.196,63.445z M82.072,63.375c-0.02,0-0.039,0-0.059-0.001c-0.289-0.013-0.579-0.029-0.869-0.045
			c-0.689-0.041-1.216-0.631-1.176-1.321c0.04-0.689,0.641-1.218,1.32-1.175l0.84,0.045c0.689,0.032,1.223,0.617,1.191,1.307
			C83.288,62.853,82.736,63.375,82.072,63.375z M93.162,63.09c-0.634,0-1.178-0.481-1.242-1.125c-0.068-0.687,0.433-1.3,1.12-1.368
			l0.839-0.088c0.672-0.073,1.303,0.421,1.378,1.108c0.074,0.686-0.422,1.303-1.108,1.377l-0.86,0.09
			C93.246,63.088,93.204,63.09,93.162,63.09z M76.114,62.866c-0.052,0-0.103-0.003-0.155-0.009l-0.86-0.111
			c-0.684-0.092-1.164-0.721-1.072-1.405c0.093-0.685,0.721-1.165,1.406-1.072l0.833,0.107c0.685,0.084,1.172,0.708,1.087,1.394
			C77.274,62.402,76.736,62.866,76.114,62.866z M99.082,62.273c-0.595,0-1.122-0.427-1.229-1.033
			c-0.119-0.68,0.335-1.328,1.015-1.448c0.275-0.048,0.55-0.099,0.824-0.15c0.685-0.127,1.332,0.319,1.46,0.997
			s-0.318,1.332-0.997,1.46c-0.284,0.054-0.568,0.105-0.854,0.155C99.228,62.267,99.155,62.273,99.082,62.273z M70.21,61.923
			c-0.079,0-0.159-0.007-0.24-0.023l-0.851-0.171c-0.676-0.139-1.11-0.801-0.972-1.477c0.14-0.675,0.792-1.111,1.478-0.972
			l0.823,0.165c0.678,0.132,1.12,0.789,0.987,1.466C71.32,61.509,70.797,61.923,70.21,61.923z M104.922,61.02
			c-0.56,0-1.068-0.378-1.211-0.945c-0.169-0.669,0.237-1.349,0.906-1.518l0.813-0.209c0.67-0.175,1.351,0.225,1.525,0.893
			c0.175,0.668-0.225,1.351-0.893,1.526l-0.835,0.215C105.126,61.007,105.023,61.02,104.922,61.02z M64.386,60.586
			c-0.104,0-0.211-0.014-0.317-0.041l-0.838-0.224c-0.666-0.182-1.059-0.869-0.877-1.535c0.183-0.667,0.87-1.056,1.535-0.877
			l0.812,0.217c0.668,0.175,1.067,0.858,0.893,1.526C65.448,60.213,64.941,60.586,64.386,60.586z M110.664,59.37
			c-0.528,0-1.02-0.338-1.19-0.868c-0.211-0.657,0.15-1.361,0.808-1.572l0.801-0.262c0.651-0.214,1.361,0.137,1.58,0.792
			c0.218,0.655-0.138,1.363-0.793,1.581l-0.822,0.269C110.919,59.351,110.79,59.37,110.664,59.37z M58.651,58.896
			c-0.128,0-0.259-0.02-0.388-0.062l-0.818-0.271c-0.655-0.219-1.009-0.927-0.79-1.582c0.219-0.654,0.927-1.009,1.581-0.79
			l0.803,0.265c0.656,0.214,1.015,0.92,0.801,1.576C59.667,58.56,59.177,58.896,58.651,58.896z M116.298,57.373
			c-0.501,0-0.974-0.304-1.166-0.799c-0.249-0.643,0.07-1.368,0.715-1.617l0.789-0.308c0.643-0.252,1.369,0.063,1.621,0.706
			c0.253,0.643-0.063,1.368-0.705,1.621l-0.803,0.313C116.601,57.346,116.449,57.373,116.298,57.373z M53.018,56.897
			c-0.148,0-0.3-0.027-0.446-0.083l-0.807-0.311c-0.642-0.252-0.96-0.977-0.708-1.62c0.253-0.644,0.979-0.958,1.62-0.708
			l0.787,0.305c0.644,0.247,0.968,0.969,0.722,1.614C53.995,56.591,53.521,56.897,53.018,56.897z M121.819,55.079
			c-0.479,0-0.937-0.277-1.144-0.744c-0.28-0.631,0.005-1.37,0.636-1.649l0.771-0.345c0.627-0.287,1.369-0.006,1.654,0.623
			c0.285,0.629,0.006,1.369-0.623,1.654l-0.788,0.353C122.16,55.045,121.988,55.079,121.819,55.079z M47.524,54.546
			c-0.184,0-0.37-0.041-0.546-0.126c-0.263-0.128-0.523-0.257-0.782-0.388c-0.616-0.312-0.862-1.063-0.551-1.679
			c0.312-0.617,1.061-0.865,1.68-0.551c0.247,0.125,0.496,0.249,0.747,0.371c0.621,0.302,0.879,1.05,0.577,1.671
			C48.432,54.287,47.987,54.546,47.524,54.546z M127.229,52.538c-0.461,0-0.903-0.256-1.121-0.697
			c-0.307-0.619-0.053-1.369,0.566-1.674l0.76-0.378c0.617-0.307,1.368-0.057,1.677,0.559c0.309,0.618,0.059,1.368-0.559,1.677
			l-0.77,0.383C127.604,52.496,127.414,52.538,127.229,52.538z M42.304,51.64c-0.229,0-0.462-0.063-0.67-0.195
			c-0.247-0.157-0.492-0.315-0.733-0.475c-0.577-0.38-0.736-1.155-0.356-1.731c0.38-0.577,1.155-0.736,1.731-0.356
			c0.231,0.152,0.465,0.303,0.7,0.453c0.582,0.37,0.754,1.143,0.384,1.725C43.121,51.435,42.717,51.64,42.304,51.64z M132.54,49.794
			c-0.444,0-0.875-0.238-1.102-0.657c-0.327-0.608-0.101-1.366,0.508-1.693l0.747-0.405c0.607-0.331,1.366-0.104,1.695,0.502
			c0.329,0.606,0.104,1.365-0.502,1.695l-0.755,0.408C132.944,49.746,132.741,49.794,132.54,49.794z M37.476,48.124
			c-0.282,0-0.566-0.095-0.801-0.291c-0.227-0.189-0.45-0.38-0.67-0.572c-0.521-0.455-0.573-1.244-0.119-1.764
			c0.453-0.519,1.244-0.574,1.764-0.119c0.206,0.18,0.416,0.359,0.629,0.536c0.529,0.443,0.601,1.231,0.157,1.761
			C38.189,47.972,37.833,48.124,37.476,48.124z M33.189,43.969c-0.346,0-0.69-0.143-0.938-0.423
			c-0.195-0.222-0.387-0.444-0.575-0.667c-0.445-0.527-0.379-1.316,0.148-1.761c0.529-0.446,1.316-0.378,1.762,0.149
			c0.177,0.209,0.356,0.418,0.54,0.626c0.457,0.518,0.407,1.308-0.11,1.764C33.778,43.866,33.483,43.969,33.189,43.969z
			 M29.629,39.178c-0.419,0-0.828-0.21-1.065-0.593c-0.157-0.254-0.308-0.509-0.456-0.765c-0.346-0.598-0.141-1.362,0.457-1.708
			c0.598-0.345,1.362-0.141,1.707,0.457c0.136,0.235,0.275,0.469,0.419,0.702c0.363,0.588,0.181,1.358-0.407,1.72
			C30.08,39.118,29.854,39.178,29.629,39.178z M27.007,33.817c-0.508,0-0.984-0.312-1.172-0.815
			c-0.104-0.281-0.203-0.562-0.298-0.844c-0.219-0.655,0.135-1.363,0.789-1.582c0.659-0.22,1.363,0.135,1.582,0.789
			c0.085,0.255,0.176,0.511,0.271,0.766c0.24,0.647-0.09,1.367-0.736,1.607C27.299,33.791,27.152,33.817,27.007,33.817z
			 M25.558,28.03c-0.616,0-1.153-0.456-1.237-1.083c-0.039-0.299-0.074-0.597-0.102-0.894c-0.067-0.687,0.436-1.298,1.123-1.365
			c0.673-0.067,1.299,0.435,1.365,1.123c0.026,0.267,0.057,0.534,0.093,0.802c0.092,0.685-0.389,1.313-1.073,1.405
			C25.67,28.026,25.614,28.03,25.558,28.03z M25.518,22.068c-0.05,0-0.101-0.003-0.151-0.009c-0.685-0.083-1.175-0.706-1.092-1.391
			c0.036-0.302,0.079-0.601,0.128-0.898c0.111-0.682,0.758-1.146,1.436-1.031c0.682,0.112,1.143,0.754,1.031,1.436
			c-0.043,0.263-0.08,0.527-0.112,0.792C26.681,21.602,26.141,22.068,25.518,22.068z M27.067,16.318c-0.167,0-0.337-0.034-0.5-0.106
			c-0.633-0.276-0.921-1.013-0.644-1.646c0.122-0.278,0.249-0.553,0.382-0.824c0.305-0.62,1.054-0.875,1.673-0.571
			c0.62,0.305,0.876,1.054,0.571,1.673c-0.117,0.238-0.229,0.479-0.335,0.723C28.007,16.037,27.548,16.318,27.067,16.318z
			 M63.081,12.891c-0.332,0-0.663-0.131-0.909-0.392c-0.182-0.193-0.371-0.389-0.569-0.586c-0.488-0.487-0.489-1.279-0.002-1.768
			c0.487-0.488,1.278-0.49,1.768-0.002c0.216,0.215,0.423,0.429,0.622,0.639c0.474,0.502,0.451,1.293-0.051,1.767
			C63.698,12.778,63.39,12.891,63.081,12.891z M30.287,11.316c-0.301,0-0.602-0.107-0.841-0.325
			c-0.511-0.464-0.549-1.255-0.084-1.766c0.205-0.226,0.416-0.447,0.633-0.663c0.49-0.487,1.281-0.485,1.768,0.004
			c0.487,0.489,0.485,1.281-0.004,1.768c-0.188,0.187-0.369,0.378-0.547,0.572C30.965,11.179,30.627,11.316,30.287,11.316z
			 M58.542,9.015c-0.241,0-0.484-0.069-0.699-0.214c-0.221-0.149-0.447-0.297-0.679-0.442c-0.585-0.366-0.763-1.138-0.396-1.723
			c0.366-0.585,1.138-0.762,1.723-0.397c0.257,0.161,0.507,0.324,0.753,0.49c0.571,0.386,0.722,1.164,0.336,1.735
			C59.337,8.822,58.944,9.015,58.542,9.015z M34.981,7.66c-0.446,0-0.878-0.24-1.103-0.661c-0.326-0.608-0.097-1.366,0.512-1.692
			c0.267-0.143,0.538-0.28,0.814-0.412c0.626-0.298,1.369-0.031,1.666,0.592c0.297,0.624,0.031,1.369-0.592,1.666
			c-0.241,0.114-0.478,0.234-0.709,0.358C35.382,7.613,35.18,7.66,34.981,7.66z M53.225,6.321c-0.138,0-0.277-0.023-0.415-0.071
			c-0.251-0.088-0.505-0.172-0.763-0.251c-0.66-0.203-1.03-0.902-0.828-1.562c0.204-0.659,0.901-1.03,1.562-0.828
			c0.289,0.089,0.576,0.184,0.858,0.283c0.651,0.229,0.993,0.942,0.765,1.594C54.223,5.999,53.741,6.321,53.225,6.321z
			 M40.598,5.681c-0.575,0-1.093-0.399-1.22-0.983c-0.148-0.674,0.279-1.341,0.953-1.488c0.295-0.065,0.587-0.123,0.877-0.177
			c0.675-0.125,1.33,0.323,1.457,1.001c0.125,0.679-0.322,1.331-1.002,1.457C41.4,5.54,41.134,5.594,40.866,5.652
			C40.776,5.671,40.686,5.681,40.598,5.681z M47.387,5.134c-0.026,0-0.054-0.001-0.081-0.002c-0.266-0.017-0.535-0.029-0.807-0.037
			c-0.689-0.019-1.234-0.593-1.216-1.284c0.019-0.69,0.606-1.236,1.284-1.215c0.303,0.008,0.602,0.021,0.898,0.04
			c0.689,0.045,1.212,0.639,1.167,1.328C48.591,4.625,48.041,5.134,47.387,5.134z"/>
		<path d="M137.831,46.847c-0.434,0-0.856-0.227-1.087-0.631c-0.342-0.6-0.133-1.363,0.467-1.705l0.366-0.211
			c0.597-0.346,1.362-0.142,1.708,0.456c0.346,0.597,0.142,1.362-0.456,1.708l-0.38,0.219
			C138.254,46.794,138.041,46.847,137.831,46.847z"/>
	</g>
</g>
<text transform="matrix(1 0 0 1 34.8333 38.9666)" font-family="'ArchitectsDaughter'" font-size="25.9396">m</text>
<text transform="matrix(1 0 0 1 61.2823 38.9666)" font-family="'ArchitectsDaughter'" font-size="5"> </text>
<text transform="matrix(1 0 0 1 64.0183 38.9666)" font-family="'ArchitectsDaughter'" font-size="25.9396">+</text>
<text transform="matrix(1 0 0 1 81.6113 38.9666)" font-family="'ArchitectsDaughter'" font-size="1"> </text>
<text transform="matrix(1 0 0 1 82.1353 38.9666)" font-family="'ArchitectsDaughter'" font-size="25.9396">c</text>
</svg>
